<svg xmlns="http://www.w3.org/2000/svg" xmlns:xlink="http://www.w3.org/1999/xlink">

    <symbol id="white-logo" viewBox="0 0 512 512">
        <title>white logo</title>
        <svg viewBox="0 0 174 128" fill="none" xmlns="http://www.w3.org/2000/svg">
            <path d="M101 25.5L135 77V18H128V52L105.5 18H101V25.5Z" fill="white" stroke="white" />
            <path d="M18 22L102.5 21.5" stroke="white" stroke-width="8" />
            <path d="M6 5.5H167.5" stroke="white" stroke-width="11" />
            <path d="M6 123H167.5" stroke="white" stroke-width="10" />
            <path d="M168 0L168 128" stroke="white" stroke-width="11" />
            <path d="M6 0L6.00001 128" stroke="white" stroke-width="11" />
            <path d="M114 9V17L108.5 8.5L114 9Z" fill="white" stroke="white" />
            <path d="M119 119L119 111L124.5 119.5L119 119Z" fill="white" stroke="white" />
            <path d="M21 18L21 110" stroke="white" stroke-width="7" />
            <path
                d="M157 18H128V25.5H150V102H136.5L102 50.5V102H88V25.5H79V38.5H47V46H80.5V52.5H47V46V38.5H40V59H74.5V72H40V102H23V109.5H47.5V80H80.5V109.5H110V76L132.5 109.5H157V30.5V18Z"
                fill="white" />
            <path
                d="M47 38.5H40V59H74.5V72H40V102H23V109.5H47.5V80H80.5V109.5H110V76L132.5 109.5H157V30.5V18H128V25.5H150V102H136.5L102 50.5V102H88V25.5H79V38.5H47ZM47 38.5V46M47 46V52.5H80.5V46H47Z"
                stroke="white" />
            <path d="M61 119.5V89H70.5V119.5H61Z" fill="white" stroke="white" />
        </svg>
    </symbol>

    <symbol id="icon-flag" viewBox="0 0 512 512">
        <title>Flag</title>
        <path
            d='M80 480a16 16 0 01-16-16V68.13a24 24 0 0111.9-20.72C88 40.38 112.38 32 160 32c37.21 0 78.83 14.71 115.55 27.68C305.12 70.13 333.05 80 352 80a183.84 183.84 0 0071-14.5 18 18 0 0125 16.58v219.36a20 20 0 01-12 18.31c-8.71 3.81-40.51 16.25-84 16.25-24.14 0-54.38-7.14-86.39-14.71C229.63 312.79 192.43 304 160 304c-36.87 0-55.74 5.58-64 9.11V464a16 16 0 01-16 16z' />
    </symbol>

    <symbol id="icon-close" viewBox="0 0 512 512">
        <title>Close</title>
        <path
            d='M289.94 256l95-95A24 24 0 00351 127l-95 95-95-95a24 24 0 00-34 34l95 95-95 95a24 24 0 1034 34l95-95 95 95a24 24 0 0034-34z' />
    </symbol>

    <symbol id="icon-add" viewBox="0 0 512 512">
        <title>Add Circle</title>
        <path
            d='M256 48C141.31 48 48 141.31 48 256s93.31 208 208 208 208-93.31 208-208S370.69 48 256 48zm80 224h-64v64a16 16 0 01-32 0v-64h-64a16 16 0 010-32h64v-64a16 16 0 0132 0v64h64a16 16 0 010 32z' />
    </symbol>

    <symbol id="icon-download" viewBox="0 0 512 512">
        <title>Download</title>
        <path
            d='M376 160H272v153.37l52.69-52.68a16 16 0 0122.62 22.62l-80 80a16 16 0 01-22.62 0l-80-80a16 16 0 0122.62-22.62L240 313.37V160H136a56.06 56.06 0 00-56 56v208a56.06 56.06 0 0056 56h240a56.06 56.06 0 0056-56V216a56.06 56.06 0 00-56-56zM272 48a16 16 0 00-32 0v112h32z' />
    </symbol>

    <symbol id="icon-genra" viewBox="0 0 512 512">
        <title>File Tray Full</title>
        <path
            d='M479.66 268.7l-32-151.81C441.48 83.77 417.68 64 384 64H128c-16.8 0-31 4.69-42.1 13.94s-18.37 22.31-21.58 38.89l-32 151.87A16.65 16.65 0 0032 272v112a64 64 0 0064 64h320a64 64 0 0064-64V272a16.65 16.65 0 00-.34-3.3zm-384-145.4v-.28c3.55-18.43 13.81-27 32.29-27H384c18.61 0 28.87 8.55 32.27 26.91 0 .13.05.26.07.39l26.93 127.88a4 4 0 01-3.92 4.82H320a15.92 15.92 0 00-16 15.82 48 48 0 11-96 0A15.92 15.92 0 00192 256H72.65a4 4 0 01-3.92-4.82z' />
        <path d='M368 160H144a16 16 0 010-32h224a16 16 0 010 32zM384 224H128a16 16 0 010-32h256a16 16 0 010 32z' />
    </symbol>

    <symbol id="icon-coffe" viewBox="0 0 512 448">
        <title>coffe icon</title>
        <path
            d="M116.364 0C103.51 0 93.0909 10.5567 93.0909 23.5789V70.7368C93.0909 83.7591 103.51 94.3158 116.364 94.3158C129.217 94.3158 139.636 83.7591 139.636 70.7368V23.5789C139.636 10.5567 129.217 0 116.364 0Z"
            fill="#8B325E" />
        <path fill-rule="evenodd" clip-rule="evenodd"
            d="M279.273 448C348.462 448 405.899 397.016 416.978 330.105H418.909C470.322 330.105 512 287.879 512 235.789C512 183.7 470.322 141.474 418.909 141.474V117.895H0V306.526C0 384.66 62.5173 448 139.636 448H279.273ZM46.5455 165.053V306.526C46.5455 358.615 88.2237 400.842 139.636 400.842H279.273C330.685 400.842 372.364 358.615 372.364 306.526V165.053H46.5455ZM465.455 235.789C465.455 261.834 444.615 282.947 418.909 282.947V188.632C444.615 188.632 465.455 209.745 465.455 235.789Z"
            fill="#8B325E" />
        <path
            d="M186.182 23.5789C186.182 10.5567 196.601 0 209.455 0C222.308 0 232.727 10.5567 232.727 23.5789V70.7368C232.727 83.7591 222.308 94.3158 209.455 94.3158C196.601 94.3158 186.182 83.7591 186.182 70.7368V23.5789Z"
            fill="#8B325E" />
        <path
            d="M302.545 0C289.692 0 279.273 10.5567 279.273 23.5789V70.7368C279.273 83.7591 289.692 94.3158 302.545 94.3158C315.399 94.3158 325.818 83.7591 325.818 70.7368V23.5789C325.818 10.5567 315.399 0 302.545 0Z"
            fill="#8B325E" />
        <path
            d="M46.5455 306.526V165.053H372.364V306.526C372.364 358.615 330.685 400.842 279.273 400.842H139.636C88.2237 400.842 46.5455 358.615 46.5455 306.526Z"
            fill="#8B325E" />
    </symbol>

    <symbol id="icon-heart" viewBox="0 0 512 439">
        <title>Heart</title>
        <path
            d='M259.805 61.423a5 5 0 0 1-7.01 0l-23.089-22.69c-52.548-51.644-137.746-51.644-190.295 0-52.548 51.643-52.548 135.373 0 187.016l216.223 212.497a.031.031 0 0 0 .044 0 .031.031 0 0 1 .044 0l.3.295a.46.46 0 0 0 .644 0l215.923-212.202c52.548-51.644 52.548-135.374 0-187.017-52.549-51.643-137.747-51.643-190.296 0l-22.488 22.101z' />
    </symbol>

    <symbol id="icon-home" viewBox="0 0 512 512">
        <title>Home</title>
        <path
            d='M261.56 101.28a8 8 0 00-11.06 0L66.4 277.15a8 8 0 00-2.47 5.79L63.9 448a32 32 0 0032 32H192a16 16 0 0016-16V328a8 8 0 018-8h80a8 8 0 018 8v136a16 16 0 0016 16h96.06a32 32 0 0032-32V282.94a8 8 0 00-2.47-5.79z' />
        <path
            d='M490.91 244.15l-74.8-71.56V64a16 16 0 00-16-16h-48a16 16 0 00-16 16v32l-57.92-55.38C272.77 35.14 264.71 32 256 32c-8.68 0-16.72 3.14-22.14 8.63l-212.7 203.5c-6.22 6-7 15.87-1.34 22.37A16 16 0 0043 267.56L250.5 69.28a8 8 0 0111.06 0l207.52 198.28a16 16 0 0022.59-.44c6.14-6.36 5.63-16.86-.76-22.97z' />
    </symbol>

    <symbol id="icon-pg" viewBox="0 0 512 512">
        <title>Shield</title>
        <path
            d='M479.07 111.35a16 16 0 00-13.15-14.75C379.89 81.18 343.69 69.12 266 34.16c-7.76-2.89-12.57-2.84-20 0-77.69 35-113.89 47-199.92 62.44a16 16 0 00-13.15 14.75c-3.85 61.1 4.34 118 24.36 169.15a348.86 348.86 0 0071.43 112.41c44.67 47.43 94.2 75.12 119.74 85.6a20 20 0 0015.11 0c27-10.92 74.69-37.82 119.71-85.62a348.86 348.86 0 0071.43-112.39c20.02-51.14 28.21-108.05 24.36-169.15z' />
    </symbol>

    <symbol id="icon-search" viewBox="0 0 512 512">
        <title>Search</title>
        <path
            d='M456.69 421.39L362.6 327.3a173.81 173.81 0 0034.84-104.58C397.44 126.38 319.06 48 222.72 48S48 126.38 48 222.72s78.38 174.72 174.72 174.72A173.81 173.81 0 00327.3 362.6l94.09 94.09a25 25 0 0035.3-35.3zM97.92 222.72a124.8 124.8 0 11124.8 124.8 124.95 124.95 0 01-124.8-124.8z' />
    </symbol>

    <symbol id="icon-star" viewBox="0 0 512 512">
        <title>Star</title>
        <path
            d='M394 480a16 16 0 01-9.39-3L256 383.76 127.39 477a16 16 0 01-24.55-18.08L153 310.35 23 221.2a16 16 0 019-29.2h160.38l48.4-148.95a16 16 0 0130.44 0l48.4 149H480a16 16 0 019.05 29.2L359 310.35l50.13 148.53A16 16 0 01394 480z' />
    </symbol>

    <symbol id="icon-time" viewBox="0 0 512 512">
        <title>Time</title>
        <path
            d='M256 48C141.13 48 48 141.13 48 256s93.13 208 208 208 208-93.13 208-208S370.87 48 256 48zm96 240h-96a16 16 0 01-16-16V128a16 16 0 0132 0v128h80a16 16 0 010 32z' />
    </symbol>

    <symbol id="icon-play" viewBox="0 0 512 512">
        <title>Play</title>
        <path
            d='M133 440a35.37 35.37 0 01-17.5-4.67c-12-6.8-19.46-20-19.46-34.33V111c0-14.37 7.46-27.53 19.46-34.33a35.13 35.13 0 0135.77.45l247.85 148.36a36 36 0 010 61l-247.89 148.4A35.5 35.5 0 01133 440z' />
    </symbol>

    <symbol id="icon-premium" viewBox="0 0 512 512">
        <title>Shield Checkmark</title>
        <path
            d='M479.07 111.36a16 16 0 00-13.15-14.74c-86.5-15.52-122.61-26.74-203.33-63.2a16 16 0 00-13.18 0C168.69 69.88 132.58 81.1 46.08 96.62a16 16 0 00-13.15 14.74c-3.85 61.11 4.36 118.05 24.43 169.24A349.47 349.47 0 00129 393.11c53.47 56.73 110.24 81.37 121.07 85.73a16 16 0 0012 0c10.83-4.36 67.6-29 121.07-85.73a349.47 349.47 0 0071.5-112.51c20.07-51.19 28.28-108.13 24.43-169.24zm-131 75.11l-110.8 128a16 16 0 01-11.41 5.53h-.66a16 16 0 01-11.2-4.57l-49.2-48.2a16 16 0 1122.4-22.86l37 36.29 99.7-115.13a16 16 0 0124.2 20.94z' />
    </symbol>
</svg>