<svg xmlns="http://www.w3.org/2000/svg" xmlns:xlink="http://www.w3.org/1999/xlink">

    <symbol id="white-logo" viewBox="0 0 512 512">
        <title>white logo</title>
        <svg viewBox="0 0 174 128" fill="none" xmlns="http://www.w3.org/2000/svg">
            <path d="M101 25.5L135 77V18H128V52L105.5 18H101V25.5Z" fill="white" stroke="white" />
            <path d="M18 22L102.5 21.5" stroke="white" stroke-width="8" />
            <path d="M6 5.5H167.5" stroke="white" stroke-width="11" />
            <path d="M6 123H167.5" stroke="white" stroke-width="10" />
            <path d="M168 0L168 128" stroke="white" stroke-width="11" />
            <path d="M6 0L6.00001 128" stroke="white" stroke-width="11" />
            <path d="M114 9V17L108.5 8.5L114 9Z" fill="white" stroke="white" />
            <path d="M119 119L119 111L124.5 119.5L119 119Z" fill="white" stroke="white" />
            <path d="M21 18L21 110" stroke="white" stroke-width="7" />
            <path
                d="M157 18H128V25.5H150V102H136.5L102 50.5V102H88V25.5H79V38.5H47V46H80.5V52.5H47V46V38.5H40V59H74.5V72H40V102H23V109.5H47.5V80H80.5V109.5H110V76L132.5 109.5H157V30.5V18Z"
                fill="white" />
            <path
                d="M47 38.5H40V59H74.5V72H40V102H23V109.5H47.5V80H80.5V109.5H110V76L132.5 109.5H157V30.5V18H128V25.5H150V102H136.5L102 50.5V102H88V25.5H79V38.5H47ZM47 38.5V46M47 46V52.5H80.5V46H47Z"
                stroke="white" />
            <path d="M61 119.5V89H70.5V119.5H61Z" fill="white" stroke="white" />
        </svg>
    </symbol>

    <symbol id="icon-arrow" viewBox="0 0 278 448" >
        <path d="M181.627 105.382C255.76 186.836 278 214.327 278 224C278 242.327 90.8134 448 74.1333 448C57.9167 448 0 384.364 0 366.545C0 357.382 14.8267 337.527 58.8433 289.164L118.15 224L58.8433 158.836C15.29 110.982 0 90.6182 0 81.4545C0 63.6364 57.9167 8.58307e-06 74.1333 8.58307e-06C82.9367 8.58307e-06 107.493 23.9272 181.627 105.382Z"/>        
    </symbol>

    <symbol id="icon-flag" viewBox="0 0 512 512">
        <title>Flag</title>
        <path
            d='M80 480a16 16 0 01-16-16V68.13a24 24 0 0111.9-20.72C88 40.38 112.38 32 160 32c37.21 0 78.83 14.71 115.55 27.68C305.12 70.13 333.05 80 352 80a183.84 183.84 0 0071-14.5 18 18 0 0125 16.58v219.36a20 20 0 01-12 18.31c-8.71 3.81-40.51 16.25-84 16.25-24.14 0-54.38-7.14-86.39-14.71C229.63 312.79 192.43 304 160 304c-36.87 0-55.74 5.58-64 9.11V464a16 16 0 01-16 16z' />
    </symbol>

    <symbol id="icon-info" viewBox="0 0 243 486">         
        <path d="M162.623 172.018L180.692 190.563V319.097V447.632H211.846C242.377 447.632 243 448.271 243 466.816V486H121.5H0V466.816C0 448.271 1.24615 447.632 28.0385 447.632H56.0769V319.737V191.842H28.0385C1.24615 191.842 0 191.203 0 172.658V153.474H72.2769C143.308 153.474 144.554 153.474 162.623 172.018Z"/>
        <path d="M164.492 16.6263C187.546 40.9263 187.546 86.9684 164.492 111.268C140.815 134.929 95.9539 134.929 72.2769 111.268C59.1923 97.8395 56.0769 88.2474 56.0769 63.9474C56.0769 21.7421 77.2615 5.72205e-06 118.385 5.72205e-06C142.062 5.72205e-06 151.408 3.19736 164.492 16.6263Z"/>
    </symbol>


    <symbol id="icon-close" viewBox="0 0 512 512">
        <title>Close</title>
        <path
            d='M289.94 256l95-95A24 24 0 00351 127l-95 95-95-95a24 24 0 00-34 34l95 95-95 95a24 24 0 1034 34l95-95 95 95a24 24 0 0034-34z' />
    </symbol>

    <symbol id="icon-add" viewBox="0 0 512 512">
        <title>Add Circle</title>
        <path d="M309.167 307.667H307.667V309.167V485.833C307.667 497.149 303.171 508.002 295.17 516.003C287.168 524.005 276.316 528.5 265 528.5C253.684 528.5 242.832 524.005 234.83 516.003C226.829 508.002 222.333 497.149 222.333 485.833V309.167V307.667H220.833H44.1667C32.8508 307.667 21.9983 303.171 13.9968 295.17C5.99523 287.168 1.5 276.316 1.5 265C1.5 253.684 5.99523 242.832 13.9968 234.83C21.9983 226.829 32.8508 222.333 44.1667 222.333H220.833H222.333V220.833V44.1667C222.333 32.8508 226.829 21.9983 234.83 13.9968C242.832 5.99523 253.684 1.5 265 1.5C276.316 1.5 287.168 5.99523 295.17 13.9968C303.171 21.9983 307.667 32.8508 307.667 44.1667V220.833V222.333H309.167H485.833C497.149 222.333 508.002 226.829 516.003 234.83C524.005 242.832 528.5 253.684 528.5 265C528.5 276.316 524.005 287.168 516.003 295.17C508.002 303.171 497.149 307.667 485.833 307.667H309.167Z"/>
    </symbol>

    <symbol id="icon-download" viewBox="0 0 512 512">
        <title>Download</title>
        <path
            d='M376 160H272v153.37l52.69-52.68a16 16 0 0122.62 22.62l-80 80a16 16 0 01-22.62 0l-80-80a16 16 0 0122.62-22.62L240 313.37V160H136a56.06 56.06 0 00-56 56v208a56.06 56.06 0 0056 56h240a56.06 56.06 0 0056-56V216a56.06 56.06 0 00-56-56zM272 48a16 16 0 00-32 0v112h32z' />
    </symbol>

    <symbol id="icon-genra" viewBox="0 0 512 512">
        <title>File Tray Full</title>
        <path
            d='M479.66 268.7l-32-151.81C441.48 83.77 417.68 64 384 64H128c-16.8 0-31 4.69-42.1 13.94s-18.37 22.31-21.58 38.89l-32 151.87A16.65 16.65 0 0032 272v112a64 64 0 0064 64h320a64 64 0 0064-64V272a16.65 16.65 0 00-.34-3.3zm-384-145.4v-.28c3.55-18.43 13.81-27 32.29-27H384c18.61 0 28.87 8.55 32.27 26.91 0 .13.05.26.07.39l26.93 127.88a4 4 0 01-3.92 4.82H320a15.92 15.92 0 00-16 15.82 48 48 0 11-96 0A15.92 15.92 0 00192 256H72.65a4 4 0 01-3.92-4.82z' />
        <path d='M368 160H144a16 16 0 010-32h224a16 16 0 010 32zM384 224H128a16 16 0 010-32h256a16 16 0 010 32z' />
    </symbol>

    <symbol id="icon-coffe" viewBox="0 0 512 448">
        <title>coffe icon</title>
        <path
            d="M116.364 0C103.51 0 93.0909 10.5567 93.0909 23.5789V70.7368C93.0909 83.7591 103.51 94.3158 116.364 94.3158C129.217 94.3158 139.636 83.7591 139.636 70.7368V23.5789C139.636 10.5567 129.217 0 116.364 0Z"
            fill="#8B325E" />
        <path fill-rule="evenodd" clip-rule="evenodd"
            d="M279.273 448C348.462 448 405.899 397.016 416.978 330.105H418.909C470.322 330.105 512 287.879 512 235.789C512 183.7 470.322 141.474 418.909 141.474V117.895H0V306.526C0 384.66 62.5173 448 139.636 448H279.273ZM46.5455 165.053V306.526C46.5455 358.615 88.2237 400.842 139.636 400.842H279.273C330.685 400.842 372.364 358.615 372.364 306.526V165.053H46.5455ZM465.455 235.789C465.455 261.834 444.615 282.947 418.909 282.947V188.632C444.615 188.632 465.455 209.745 465.455 235.789Z"
            fill="#8B325E" />
        <path
            d="M186.182 23.5789C186.182 10.5567 196.601 0 209.455 0C222.308 0 232.727 10.5567 232.727 23.5789V70.7368C232.727 83.7591 222.308 94.3158 209.455 94.3158C196.601 94.3158 186.182 83.7591 186.182 70.7368V23.5789Z"
            fill="#8B325E" />
        <path
            d="M302.545 0C289.692 0 279.273 10.5567 279.273 23.5789V70.7368C279.273 83.7591 289.692 94.3158 302.545 94.3158C315.399 94.3158 325.818 83.7591 325.818 70.7368V23.5789C325.818 10.5567 315.399 0 302.545 0Z"
            fill="#8B325E" />
        <path
            d="M46.5455 306.526V165.053H372.364V306.526C372.364 358.615 330.685 400.842 279.273 400.842H139.636C88.2237 400.842 46.5455 358.615 46.5455 306.526Z"
            fill="#8B325E" />
    </symbol>

    <symbol id="icon-heart" viewBox="0 0 512 439">
        <title>Heart</title>
        <path
            d='M259.805 61.423a5 5 0 0 1-7.01 0l-23.089-22.69c-52.548-51.644-137.746-51.644-190.295 0-52.548 51.643-52.548 135.373 0 187.016l216.223 212.497a.031.031 0 0 0 .044 0 .031.031 0 0 1 .044 0l.3.295a.46.46 0 0 0 .644 0l215.923-212.202c52.548-51.644 52.548-135.374 0-187.017-52.549-51.643-137.747-51.643-190.296 0l-22.488 22.101z' />
    </symbol>

    <symbol id="icon-home" viewBox="0 0 514 530">
        <title>Home</title>
        <path fill-rule="evenodd" clip-rule="evenodd" d="M249.577 2.99415C251.567 1.07252 254.215 0 256.97 0C259.724 0 262.372 1.07252 264.363 2.99415L510.477 240.292C511.523 241.301 512.354 242.514 512.922 243.857C513.489 245.199 513.781 246.645 513.779 248.104L513.82 486.567C513.82 498.018 515.653 515.69 507.63 523.787C499.608 531.884 482.386 529.744 471.04 529.744H342.569C336.896 529.744 331.455 527.47 327.444 523.421C323.432 519.372 321.179 513.881 321.179 508.156V397.655C321.179 394.792 320.052 392.047 318.046 390.022C316.041 387.998 313.321 386.861 310.484 386.861H203.536C200.699 386.861 197.979 387.998 195.973 390.022C193.968 392.047 192.841 394.792 192.841 397.655V508.156C192.841 513.881 190.587 519.372 186.576 523.421C182.565 527.47 177.124 529.744 171.451 529.744H43.0331C31.6873 529.744 14.178 531.884 6.15529 523.787C-1.86739 515.69 0.253773 498.018 0.253773 486.567V248.104C0.252133 246.645 0.543939 245.199 1.1115 243.857C1.67906 242.514 2.51062 241.301 3.55584 240.292L249.577 2.99415ZM256.978 49C254.941 49 252.984 49.7933 251.512 51.2145L46.6288 246.725C45.8561 247.472 45.2413 248.369 44.8217 249.362C44.4021 250.355 44.1864 251.424 44.1876 252.504V462.876C44.1876 471.346 45.6195 484.416 51.5506 490.405C57.4818 496.394 90.4264 494.811 98.8144 494.811H132.754C136.948 494.811 140.97 493.128 143.936 490.134C146.901 487.139 148.567 483.078 148.567 478.843V345.718C148.567 343.601 149.4 341.57 150.883 340.073C152.366 338.576 154.377 337.735 156.474 337.735H347.541C349.638 337.735 351.649 338.576 353.132 340.073C354.614 341.57 355.447 343.601 355.447 345.718V479.843C355.447 484.078 357.114 488.139 360.079 491.134C363.045 494.128 367.067 495.811 371.261 495.811H447.24C455.628 495.811 468.36 497.394 474.291 491.405C480.222 485.416 478.867 472.346 478.867 463.876L478.837 252.504C478.838 251.424 478.622 250.355 478.203 249.362C477.783 248.369 477.169 247.472 476.396 246.725L262.443 51.2145C260.972 49.7933 259.014 49 256.978 49Z"/>
    </symbol>

    <symbol id="icon-pg" viewBox="0 0 512 512">
        <title>Shield</title>
        <path
            d='M479.07 111.35a16 16 0 00-13.15-14.75C379.89 81.18 343.69 69.12 266 34.16c-7.76-2.89-12.57-2.84-20 0-77.69 35-113.89 47-199.92 62.44a16 16 0 00-13.15 14.75c-3.85 61.1 4.34 118 24.36 169.15a348.86 348.86 0 0071.43 112.41c44.67 47.43 94.2 75.12 119.74 85.6a20 20 0 0015.11 0c27-10.92 74.69-37.82 119.71-85.62a348.86 348.86 0 0071.43-112.39c20.02-51.14 28.21-108.05 24.36-169.15z' />
    </symbol>

    <symbol id="icon-search" viewBox="0 0 512 512">
        <title>Search</title>
       <path d="M417.171 383.367L416.432 384.385L417.307 385.291L502.432 473.352C507.828 479.612 510.715 487.779 510.488 496.183C510.26 504.6 506.926 512.599 501.184 518.539C495.443 524.477 487.733 527.908 479.639 528.142C471.56 528.376 463.691 525.408 457.644 519.83L372.518 431.77L371.582 430.802L370.519 431.628C330.674 462.59 282.182 479.3 232.361 479.243H232.359C105.113 479.243 1.5 372.132 1.5 240.372C1.5 108.612 105.113 1.5 232.359 1.5C359.605 1.5 463.219 108.612 463.219 240.372V240.373C463.273 291.949 447.108 342.139 417.171 383.367ZM64.8884 240.372V240.373C64.9416 286.274 82.5908 330.288 113.98 362.76C145.371 395.233 187.942 413.511 232.357 413.566H232.359C265.493 413.566 297.879 403.401 325.421 384.364C352.962 365.327 374.42 338.275 387.089 306.634C399.758 274.993 403.072 240.179 396.614 206.593C390.156 173.006 374.214 142.148 350.797 117.923C327.379 93.6979 297.537 77.1942 265.041 70.5075C232.545 63.8206 198.862 67.2531 168.254 80.3683C137.647 93.4833 111.495 115.689 93.0995 144.17C74.704 172.65 64.8884 206.128 64.8884 240.372Z" stroke-width="3"/>    
    </symbol>

    <symbol id="icon-star" viewBox="0 0 512 512">
        <title>Star</title>
        <path
            d='M394 480a16 16 0 01-9.39-3L256 383.76 127.39 477a16 16 0 01-24.55-18.08L153 310.35 23 221.2a16 16 0 019-29.2h160.38l48.4-148.95a16 16 0 0130.44 0l48.4 149H480a16 16 0 019.05 29.2L359 310.35l50.13 148.53A16 16 0 01394 480z' />
    </symbol>

    <symbol id="icon-time" viewBox="0 0 512 512">
        <title>Time</title>
        <path
            d='M256 48C141.13 48 48 141.13 48 256s93.13 208 208 208 208-93.13 208-208S370.87 48 256 48zm96 240h-96a16 16 0 01-16-16V128a16 16 0 0132 0v128h80a16 16 0 010 32z' />
    </symbol>

    <symbol id="icon-play" viewBox="0 0 512 512">
        <title>Play</title>
        <path
            d='M133 440a35.37 35.37 0 01-17.5-4.67c-12-6.8-19.46-20-19.46-34.33V111c0-14.37 7.46-27.53 19.46-34.33a35.13 35.13 0 0135.77.45l247.85 148.36a36 36 0 010 61l-247.89 148.4A35.5 35.5 0 01133 440z' />
    </symbol>

    <symbol id="icon-premium" viewBox="0 0 512 512">
        <title>Shield Checkmark</title>
        <path
            d='M479.07 111.36a16 16 0 00-13.15-14.74c-86.5-15.52-122.61-26.74-203.33-63.2a16 16 0 00-13.18 0C168.69 69.88 132.58 81.1 46.08 96.62a16 16 0 00-13.15 14.74c-3.85 61.11 4.36 118.05 24.43 169.24A349.47 349.47 0 00129 393.11c53.47 56.73 110.24 81.37 121.07 85.73a16 16 0 0012 0c10.83-4.36 67.6-29 121.07-85.73a349.47 349.47 0 0071.5-112.51c20.07-51.19 28.28-108.13 24.43-169.24zm-131 75.11l-110.8 128a16 16 0 01-11.41 5.53h-.66a16 16 0 01-11.2-4.57l-49.2-48.2a16 16 0 1122.4-22.86l37 36.29 99.7-115.13a16 16 0 0124.2 20.94z' />
    </symbol>
</svg>